0
SECTION
2
ENTITIES
0
LINE
8
0
10
0.000000
20
900.000000
11
900.000000
21
900.000000
0
LINE
8
0
10
900.000000
20
900.000000
11
900.000000
21
0.000000
0
LINE
8
0
10
900.000000
20
0.000000
11
0.000000
21
0.000000
0
LINE
8
0
10
0.000000
20
0.000000
11
0.000000
21
900.000000
0
LINE
8
0
10
670.000000
20
230.000000
11
890.000000
21
230.000000
0
LINE
8
0
10
890.000000
20
230.000000
11
890.000000
21
10.000000
0
LINE
8
0
10
890.000000
20
10.000000
11
670.000000
21
10.000000
0
LINE
8
0
10
670.000000
20
10.000000
11
670.000000
21
230.000000
0
LINE
8
0
10
706.700000
20
193.300000
11
743.400000
21
193.300000
0
LINE
8
0
10
743.400000
20
193.300000
11
743.400000
21
156.600000
0
LINE
8
0
10
743.400000
20
156.600000
11
706.700000
21
156.600000
0
LINE
8
0
10
706.700000
20
156.600000
11
706.700000
21
193.300000
0
LINE
8
0
10
743.300000
20
193.300000
11
780.000000
21
193.300000
0
LINE
8
0
10
780.000000
20
193.300000
11
780.000000
21
156.600000
0
LINE
8
0
10
780.000000
20
156.600000
11
743.300000
21
156.600000
0
LINE
8
0
10
743.300000
20
156.600000
11
743.300000
21
193.300000
0
LINE
8
0
10
706.700000
20
156.700000
11
743.400000
21
156.700000
0
LINE
8
0
10
743.400000
20
156.700000
11
743.400000
21
120.000000
0
LINE
8
0
10
743.400000
20
120.000000
11
706.700000
21
120.000000
0
LINE
8
0
10
706.700000
20
120.000000
11
706.700000
21
156.700000
0
LINE
8
0
10
743.300000
20
156.700000
11
780.000000
21
156.700000
0
LINE
8
0
10
780.000000
20
156.700000
11
780.000000
21
120.000000
0
LINE
8
0
10
780.000000
20
120.000000
11
743.300000
21
120.000000
0
LINE
8
0
10
743.300000
20
120.000000
11
743.300000
21
156.700000
0
LINE
8
0
10
780.000000
20
156.700000
11
816.700000
21
156.700000
0
LINE
8
0
10
816.700000
20
156.700000
11
816.700000
21
120.000000
0
LINE
8
0
10
816.700000
20
120.000000
11
780.000000
21
120.000000
0
LINE
8
0
10
780.000000
20
120.000000
11
780.000000
21
156.700000
0
LINE
8
0
10
816.700000
20
156.700000
11
853.400000
21
156.700000
0
LINE
8
0
10
853.400000
20
156.700000
11
853.400000
21
120.000000
0
LINE
8
0
10
853.400000
20
120.000000
11
816.700000
21
120.000000
0
LINE
8
0
10
816.700000
20
120.000000
11
816.700000
21
156.700000
0
LINE
8
0
10
743.300000
20
120.000000
11
780.000000
21
120.000000
0
LINE
8
0
10
780.000000
20
120.000000
11
780.000000
21
83.300000
0
LINE
8
0
10
780.000000
20
83.300000
11
743.300000
21
83.300000
0
LINE
8
0
10
743.300000
20
83.300000
11
743.300000
21
120.000000
0
LINE
8
0
10
816.700000
20
120.000000
11
853.400000
21
120.000000
0
LINE
8
0
10
853.400000
20
120.000000
11
853.400000
21
83.300000
0
LINE
8
0
10
853.400000
20
83.300000
11
816.700000
21
83.300000
0
LINE
8
0
10
816.700000
20
83.300000
11
816.700000
21
120.000000
0
LINE
8
0
10
743.300000
20
83.300000
11
780.000000
21
83.300000
0
LINE
8
0
10
780.000000
20
83.300000
11
780.000000
21
46.600000
0
LINE
8
0
10
780.000000
20
46.600000
11
743.300000
21
46.600000
0
LINE
8
0
10
743.300000
20
46.600000
11
743.300000
21
83.300000
0
LINE
8
0
10
780.000000
20
83.300000
11
816.700000
21
83.300000
0
LINE
8
0
10
816.700000
20
83.300000
11
816.700000
21
46.600000
0
LINE
8
0
10
816.700000
20
46.600000
11
780.000000
21
46.600000
0
LINE
8
0
10
780.000000
20
46.600000
11
780.000000
21
83.300000
0
LINE
8
0
10
10.000000
20
890.000000
11
230.000000
21
890.000000
0
LINE
8
0
10
230.000000
20
890.000000
11
230.000000
21
670.000000
0
LINE
8
0
10
230.000000
20
670.000000
11
10.000000
21
670.000000
0
LINE
8
0
10
10.000000
20
670.000000
11
10.000000
21
890.000000
0
LINE
8
0
10
46.700000
20
853.300000
11
83.400000
21
853.300000
0
LINE
8
0
10
83.400000
20
853.300000
11
83.400000
21
816.600000
0
LINE
8
0
10
83.400000
20
816.600000
11
46.700000
21
816.600000
0
LINE
8
0
10
46.700000
20
816.600000
11
46.700000
21
853.300000
0
LINE
8
0
10
83.300000
20
853.300000
11
120.000000
21
853.300000
0
LINE
8
0
10
120.000000
20
853.300000
11
120.000000
21
816.600000
0
LINE
8
0
10
120.000000
20
816.600000
11
83.300000
21
816.600000
0
LINE
8
0
10
83.300000
20
816.600000
11
83.300000
21
853.300000
0
LINE
8
0
10
120.000000
20
853.300000
11
156.700000
21
853.300000
0
LINE
8
0
10
156.700000
20
853.300000
11
156.700000
21
816.600000
0
LINE
8
0
10
156.700000
20
816.600000
11
120.000000
21
816.600000
0
LINE
8
0
10
120.000000
20
816.600000
11
120.000000
21
853.300000
0
LINE
8
0
10
156.700000
20
853.300000
11
193.400000
21
853.300000
0
LINE
8
0
10
193.400000
20
853.300000
11
193.400000
21
816.600000
0
LINE
8
0
10
193.400000
20
816.600000
11
156.700000
21
816.600000
0
LINE
8
0
10
156.700000
20
816.600000
11
156.700000
21
853.300000
0
LINE
8
0
10
46.700000
20
816.700000
11
83.400000
21
816.700000
0
LINE
8
0
10
83.400000
20
816.700000
11
83.400000
21
780.000000
0
LINE
8
0
10
83.400000
20
780.000000
11
46.700000
21
780.000000
0
LINE
8
0
10
46.700000
20
780.000000
11
46.700000
21
816.700000
0
LINE
8
0
10
156.700000
20
816.700000
11
193.400000
21
816.700000
0
LINE
8
0
10
193.400000
20
816.700000
11
193.400000
21
780.000000
0
LINE
8
0
10
193.400000
20
780.000000
11
156.700000
21
780.000000
0
LINE
8
0
10
156.700000
20
780.000000
11
156.700000
21
816.700000
0
LINE
8
0
10
46.700000
20
780.000000
11
83.400000
21
780.000000
0
LINE
8
0
10
83.400000
20
780.000000
11
83.400000
21
743.300000
0
LINE
8
0
10
83.400000
20
743.300000
11
46.700000
21
743.300000
0
LINE
8
0
10
46.700000
20
743.300000
11
46.700000
21
780.000000
0
LINE
8
0
10
156.700000
20
780.000000
11
193.400000
21
780.000000
0
LINE
8
0
10
193.400000
20
780.000000
11
193.400000
21
743.300000
0
LINE
8
0
10
193.400000
20
743.300000
11
156.700000
21
743.300000
0
LINE
8
0
10
156.700000
20
743.300000
11
156.700000
21
780.000000
0
LINE
8
0
10
156.700000
20
743.300000
11
193.400000
21
743.300000
0
LINE
8
0
10
193.400000
20
743.300000
11
193.400000
21
706.600000
0
LINE
8
0
10
193.400000
20
706.600000
11
156.700000
21
706.600000
0
LINE
8
0
10
156.700000
20
706.600000
11
156.700000
21
743.300000
0
LINE
8
0
10
670.000000
20
890.000000
11
890.000000
21
890.000000
0
LINE
8
0
10
890.000000
20
890.000000
11
890.000000
21
670.000000
0
LINE
8
0
10
890.000000
20
670.000000
11
670.000000
21
670.000000
0
LINE
8
0
10
670.000000
20
670.000000
11
670.000000
21
890.000000
0
LINE
8
0
10
816.700000
20
853.300000
11
853.400000
21
853.300000
0
LINE
8
0
10
853.400000
20
853.300000
11
853.400000
21
816.600000
0
LINE
8
0
10
853.400000
20
816.600000
11
816.700000
21
816.600000
0
LINE
8
0
10
816.700000
20
816.600000
11
816.700000
21
853.300000
0
LINE
8
0
10
816.700000
20
816.700000
11
853.400000
21
816.700000
0
LINE
8
0
10
853.400000
20
816.700000
11
853.400000
21
780.000000
0
LINE
8
0
10
853.400000
20
780.000000
11
816.700000
21
780.000000
0
LINE
8
0
10
816.700000
20
780.000000
11
816.700000
21
816.700000
0
LINE
8
0
10
706.700000
20
780.000000
11
743.400000
21
780.000000
0
LINE
8
0
10
743.400000
20
780.000000
11
743.400000
21
743.300000
0
LINE
8
0
10
743.400000
20
743.300000
11
706.700000
21
743.300000
0
LINE
8
0
10
706.700000
20
743.300000
11
706.700000
21
780.000000
0
LINE
8
0
10
780.000000
20
780.000000
11
816.700000
21
780.000000
0
LINE
8
0
10
816.700000
20
780.000000
11
816.700000
21
743.300000
0
LINE
8
0
10
816.700000
20
743.300000
11
780.000000
21
743.300000
0
LINE
8
0
10
780.000000
20
743.300000
11
780.000000
21
780.000000
0
LINE
8
0
10
743.300000
20
743.300000
11
780.000000
21
743.300000
0
LINE
8
0
10
780.000000
20
743.300000
11
780.000000
21
706.600000
0
LINE
8
0
10
780.000000
20
706.600000
11
743.300000
21
706.600000
0
LINE
8
0
10
743.300000
20
706.600000
11
743.300000
21
743.300000
0
LINE
8
0
10
780.000000
20
743.300000
11
816.700000
21
743.300000
0
LINE
8
0
10
816.700000
20
743.300000
11
816.700000
21
706.600000
0
LINE
8
0
10
816.700000
20
706.600000
11
780.000000
21
706.600000
0
LINE
8
0
10
780.000000
20
706.600000
11
780.000000
21
743.300000
0
LINE
8
0
10
816.700000
20
743.300000
11
853.400000
21
743.300000
0
LINE
8
0
10
853.400000
20
743.300000
11
853.400000
21
706.600000
0
LINE
8
0
10
853.400000
20
706.600000
11
816.700000
21
706.600000
0
LINE
8
0
10
816.700000
20
706.600000
11
816.700000
21
743.300000
0
LINE
8
0
10
10.000000
20
230.000000
11
230.000000
21
230.000000
0
LINE
8
0
10
230.000000
20
230.000000
11
230.000000
21
10.000000
0
LINE
8
0
10
230.000000
20
10.000000
11
10.000000
21
10.000000
0
LINE
8
0
10
10.000000
20
10.000000
11
10.000000
21
230.000000
0
LINE
8
0
10
46.700000
20
156.700000
11
83.400000
21
156.700000
0
LINE
8
0
10
83.400000
20
156.700000
11
83.400000
21
120.000000
0
LINE
8
0
10
83.400000
20
120.000000
11
46.700000
21
120.000000
0
LINE
8
0
10
46.700000
20
120.000000
11
46.700000
21
156.700000
0
LINE
8
0
10
83.300000
20
156.700000
11
120.000000
21
156.700000
0
LINE
8
0
10
120.000000
20
156.700000
11
120.000000
21
120.000000
0
LINE
8
0
10
120.000000
20
120.000000
11
83.300000
21
120.000000
0
LINE
8
0
10
83.300000
20
120.000000
11
83.300000
21
156.700000
0
LINE
8
0
10
120.000000
20
156.700000
11
156.700000
21
156.700000
0
LINE
8
0
10
156.700000
20
156.700000
11
156.700000
21
120.000000
0
LINE
8
0
10
156.700000
20
120.000000
11
120.000000
21
120.000000
0
LINE
8
0
10
120.000000
20
120.000000
11
120.000000
21
156.700000
0
LINE
8
0
10
46.700000
20
120.000000
11
83.400000
21
120.000000
0
LINE
8
0
10
83.400000
20
120.000000
11
83.400000
21
83.300000
0
LINE
8
0
10
83.400000
20
83.300000
11
46.700000
21
83.300000
0
LINE
8
0
10
46.700000
20
83.300000
11
46.700000
21
120.000000
0
LINE
8
0
10
120.000000
20
120.000000
11
156.700000
21
120.000000
0
LINE
8
0
10
156.700000
20
120.000000
11
156.700000
21
83.300000
0
LINE
8
0
10
156.700000
20
83.300000
11
120.000000
21
83.300000
0
LINE
8
0
10
120.000000
20
83.300000
11
120.000000
21
120.000000
0
LINE
8
0
10
156.700000
20
120.000000
11
193.400000
21
120.000000
0
LINE
8
0
10
193.400000
20
120.000000
11
193.400000
21
83.300000
0
LINE
8
0
10
193.400000
20
83.300000
11
156.700000
21
83.300000
0
LINE
8
0
10
156.700000
20
83.300000
11
156.700000
21
120.000000
0
LINE
8
0
10
83.300000
20
83.300000
11
120.000000
21
83.300000
0
LINE
8
0
10
120.000000
20
83.300000
11
120.000000
21
46.600000
0
LINE
8
0
10
120.000000
20
46.600000
11
83.300000
21
46.600000
0
LINE
8
0
10
83.300000
20
46.600000
11
83.300000
21
83.300000
0
LINE
8
0
10
120.000000
20
83.300000
11
156.700000
21
83.300000
0
LINE
8
0
10
156.700000
20
83.300000
11
156.700000
21
46.600000
0
LINE
8
0
10
156.700000
20
46.600000
11
120.000000
21
46.600000
0
LINE
8
0
10
120.000000
20
46.600000
11
120.000000
21
83.300000
0
LINE
8
0
10
156.700000
20
83.300000
11
193.400000
21
83.300000
0
LINE
8
0
10
193.400000
20
83.300000
11
193.400000
21
46.600000
0
LINE
8
0
10
193.400000
20
46.600000
11
156.700000
21
46.600000
0
LINE
8
0
10
156.700000
20
46.600000
11
156.700000
21
83.300000
0
LINE
8
0
10
412.900000
20
487.100000
11
487.000000
21
487.100000
0
LINE
8
0
10
487.000000
20
487.100000
11
487.000000
21
413.000000
0
LINE
8
0
10
487.000000
20
413.000000
11
412.900000
21
413.000000
0
LINE
8
0
10
412.900000
20
413.000000
11
412.900000
21
487.100000
0
LINE
8
0
10
450.000000
20
474.700000
11
462.400000
21
474.700000
0
LINE
8
0
10
462.400000
20
474.700000
11
462.400000
21
462.300000
0
LINE
8
0
10
462.400000
20
462.300000
11
450.000000
21
462.300000
0
LINE
8
0
10
450.000000
20
462.300000
11
450.000000
21
474.700000
0
LINE
8
0
10
425.300000
20
462.400000
11
437.700000
21
462.400000
0
LINE
8
0
10
437.700000
20
462.400000
11
437.700000
21
450.000000
0
LINE
8
0
10
437.700000
20
450.000000
11
425.300000
21
450.000000
0
LINE
8
0
10
425.300000
20
450.000000
11
425.300000
21
462.400000
0
LINE
8
0
10
450.000000
20
462.400000
11
462.400000
21
462.400000
0
LINE
8
0
10
462.400000
20
462.400000
11
462.400000
21
450.000000
0
LINE
8
0
10
462.400000
20
450.000000
11
450.000000
21
450.000000
0
LINE
8
0
10
450.000000
20
450.000000
11
450.000000
21
462.400000
0
LINE
8
0
10
425.300000
20
437.600000
11
437.700000
21
437.600000
0
LINE
8
0
10
437.700000
20
437.600000
11
437.700000
21
425.200000
0
LINE
8
0
10
437.700000
20
425.200000
11
425.300000
21
425.200000
0
LINE
8
0
10
425.300000
20
425.200000
11
425.300000
21
437.600000
0
LINE
8
0
10
437.600000
20
437.600000
11
450.000000
21
437.600000
0
LINE
8
0
10
450.000000
20
437.600000
11
450.000000
21
425.200000
0
LINE
8
0
10
450.000000
20
425.200000
11
437.600000
21
425.200000
0
LINE
8
0
10
437.600000
20
425.200000
11
437.600000
21
437.600000
0
LINE
8
0
10
450.000000
20
437.600000
11
462.400000
21
437.600000
0
LINE
8
0
10
462.400000
20
437.600000
11
462.400000
21
425.200000
0
LINE
8
0
10
462.400000
20
425.200000
11
450.000000
21
425.200000
0
LINE
8
0
10
450.000000
20
425.200000
11
450.000000
21
437.600000
0
LINE
8
0
10
462.400000
20
437.600000
11
474.800000
21
437.600000
0
LINE
8
0
10
474.800000
20
437.600000
11
474.800000
21
425.200000
0
LINE
8
0
10
474.800000
20
425.200000
11
462.400000
21
425.200000
0
LINE
8
0
10
462.400000
20
425.200000
11
462.400000
21
437.600000
0
LINE
8
0
10
378.011663
20
647.786278
11
517.311663
21
647.786278
0
LINE
8
0
10
517.311663
20
647.786278
11
517.311663
21
508.486278
0
LINE
8
0
10
517.311663
20
508.486278
11
378.011663
21
508.486278
0
LINE
8
0
10
378.011663
20
508.486278
11
378.011663
21
647.786278
0
LINE
8
0
10
447.711663
20
624.486278
11
471.011663
21
624.486278
0
LINE
8
0
10
471.011663
20
624.486278
11
471.011663
21
601.186278
0
LINE
8
0
10
471.011663
20
601.186278
11
447.711663
21
601.186278
0
LINE
8
0
10
447.711663
20
601.186278
11
447.711663
21
624.486278
0
LINE
8
0
10
424.511663
20
601.286278
11
447.811663
21
601.286278
0
LINE
8
0
10
447.811663
20
601.286278
11
447.811663
21
577.986278
0
LINE
8
0
10
447.811663
20
577.986278
11
424.511663
21
577.986278
0
LINE
8
0
10
424.511663
20
577.986278
11
424.511663
21
601.286278
0
LINE
8
0
10
401.311663
20
578.086278
11
424.611663
21
578.086278
0
LINE
8
0
10
424.611663
20
578.086278
11
424.611663
21
554.786278
0
LINE
8
0
10
424.611663
20
554.786278
11
401.311663
21
554.786278
0
LINE
8
0
10
401.311663
20
554.786278
11
401.311663
21
578.086278
0
LINE
8
0
10
447.711663
20
578.086278
11
471.011663
21
578.086278
0
LINE
8
0
10
471.011663
20
578.086278
11
471.011663
21
554.786278
0
LINE
8
0
10
471.011663
20
554.786278
11
447.711663
21
554.786278
0
LINE
8
0
10
447.711663
20
554.786278
11
447.711663
21
578.086278
0
LINE
8
0
10
470.911663
20
578.086278
11
494.211663
21
578.086278
0
LINE
8
0
10
494.211663
20
578.086278
11
494.211663
21
554.786278
0
LINE
8
0
10
494.211663
20
554.786278
11
470.911663
21
554.786278
0
LINE
8
0
10
470.911663
20
554.786278
11
470.911663
21
578.086278
0
LINE
8
0
10
470.911663
20
554.886278
11
494.211663
21
554.886278
0
LINE
8
0
10
494.211663
20
554.886278
11
494.211663
21
531.586278
0
LINE
8
0
10
494.211663
20
531.586278
11
470.911663
21
531.586278
0
LINE
8
0
10
470.911663
20
531.586278
11
470.911663
21
554.886278
0
LINE
8
0
10
378.000000
20
392.000000
11
518.000000
21
392.000000
0
LINE
8
0
10
518.000000
20
392.000000
11
518.000000
21
252.000000
0
LINE
8
0
10
518.000000
20
252.000000
11
378.000000
21
252.000000
0
LINE
8
0
10
378.000000
20
252.000000
11
378.000000
21
392.000000
0
LINE
8
0
10
448.000000
20
368.700000
11
471.400000
21
368.700000
0
LINE
8
0
10
471.400000
20
368.700000
11
471.400000
21
345.300000
0
LINE
8
0
10
471.400000
20
345.300000
11
448.000000
21
345.300000
0
LINE
8
0
10
448.000000
20
345.300000
11
448.000000
21
368.700000
0
LINE
8
0
10
424.700000
20
345.300000
11
448.100000
21
345.300000
0
LINE
8
0
10
448.100000
20
345.300000
11
448.100000
21
321.900000
0
LINE
8
0
10
448.100000
20
321.900000
11
424.700000
21
321.900000
0
LINE
8
0
10
424.700000
20
321.900000
11
424.700000
21
345.300000
0
LINE
8
0
10
448.000000
20
345.300000
11
471.400000
21
345.300000
0
LINE
8
0
10
471.400000
20
345.300000
11
471.400000
21
321.900000
0
LINE
8
0
10
471.400000
20
321.900000
11
448.000000
21
321.900000
0
LINE
8
0
10
448.000000
20
321.900000
11
448.000000
21
345.300000
0
LINE
8
0
10
448.000000
20
322.000000
11
471.400000
21
322.000000
0
LINE
8
0
10
471.400000
20
322.000000
11
471.400000
21
298.600000
0
LINE
8
0
10
471.400000
20
298.600000
11
448.000000
21
298.600000
0
LINE
8
0
10
448.000000
20
298.600000
11
448.000000
21
322.000000
0
LINE
8
0
10
471.300000
20
322.000000
11
494.700000
21
322.000000
0
LINE
8
0
10
494.700000
20
322.000000
11
494.700000
21
298.600000
0
LINE
8
0
10
494.700000
20
298.600000
11
471.300000
21
298.600000
0
LINE
8
0
10
471.300000
20
298.600000
11
471.300000
21
322.000000
0
LINE
8
0
10
401.300000
20
298.700000
11
424.700000
21
298.700000
0
LINE
8
0
10
424.700000
20
298.700000
11
424.700000
21
275.300000
0
LINE
8
0
10
424.700000
20
275.300000
11
401.300000
21
275.300000
0
LINE
8
0
10
401.300000
20
275.300000
11
401.300000
21
298.700000
0
LINE
8
0
10
424.700000
20
298.700000
11
448.100000
21
298.700000
0
LINE
8
0
10
448.100000
20
298.700000
11
448.100000
21
275.300000
0
LINE
8
0
10
448.100000
20
275.300000
11
424.700000
21
275.300000
0
LINE
8
0
10
424.700000
20
275.300000
11
424.700000
21
298.700000
0
LINE
8
0
10
448.000000
20
298.700000
11
471.400000
21
298.700000
0
LINE
8
0
10
471.400000
20
298.700000
11
471.400000
21
275.300000
0
LINE
8
0
10
471.400000
20
275.300000
11
448.000000
21
275.300000
0
LINE
8
0
10
448.000000
20
275.300000
11
448.000000
21
298.700000
0
LINE
8
0
10
217.085616
20
517.640267
11
356.285616
21
517.640267
0
LINE
8
0
10
356.285616
20
517.640267
11
356.285616
21
378.440267
0
LINE
8
0
10
356.285616
20
378.440267
11
217.085616
21
378.440267
0
LINE
8
0
10
217.085616
20
378.440267
11
217.085616
21
517.640267
0
LINE
8
0
10
263.485616
20
494.440267
11
286.685616
21
494.440267
0
LINE
8
0
10
286.685616
20
494.440267
11
286.685616
21
471.240267
0
LINE
8
0
10
286.685616
20
471.240267
11
263.485616
21
471.240267
0
LINE
8
0
10
263.485616
20
471.240267
11
263.485616
21
494.440267
0
LINE
8
0
10
263.485616
20
471.240267
11
286.685616
21
471.240267
0
LINE
8
0
10
286.685616
20
471.240267
11
286.685616
21
448.040267
0
LINE
8
0
10
286.685616
20
448.040267
11
263.485616
21
448.040267
0
LINE
8
0
10
263.485616
20
448.040267
11
263.485616
21
471.240267
0
LINE
8
0
10
286.685616
20
471.240267
11
309.885616
21
471.240267
0
LINE
8
0
10
309.885616
20
471.240267
11
309.885616
21
448.040267
0
LINE
8
0
10
309.885616
20
448.040267
11
286.685616
21
448.040267
0
LINE
8
0
10
286.685616
20
448.040267
11
286.685616
21
471.240267
0
LINE
8
0
10
263.485616
20
448.040267
11
286.685616
21
448.040267
0
LINE
8
0
10
286.685616
20
448.040267
11
286.685616
21
424.840267
0
LINE
8
0
10
286.685616
20
424.840267
11
263.485616
21
424.840267
0
LINE
8
0
10
263.485616
20
424.840267
11
263.485616
21
448.040267
0
LINE
8
0
10
286.685616
20
448.040267
11
309.885616
21
448.040267
0
LINE
8
0
10
309.885616
20
448.040267
11
309.885616
21
424.840267
0
LINE
8
0
10
309.885616
20
424.840267
11
286.685616
21
424.840267
0
LINE
8
0
10
286.685616
20
424.840267
11
286.685616
21
448.040267
0
LINE
8
0
10
263.485616
20
424.840267
11
286.685616
21
424.840267
0
LINE
8
0
10
286.685616
20
424.840267
11
286.685616
21
401.640267
0
LINE
8
0
10
286.685616
20
401.640267
11
263.485616
21
401.640267
0
LINE
8
0
10
263.485616
20
401.640267
11
263.485616
21
424.840267
0
LINE
8
0
10
309.885616
20
424.840267
11
333.085616
21
424.840267
0
LINE
8
0
10
333.085616
20
424.840267
11
333.085616
21
401.640267
0
LINE
8
0
10
333.085616
20
401.640267
11
309.885616
21
401.640267
0
LINE
8
0
10
309.885616
20
401.640267
11
309.885616
21
424.840267
0
LINE
8
0
10
543.000000
20
518.000000
11
683.000000
21
518.000000
0
LINE
8
0
10
683.000000
20
518.000000
11
683.000000
21
378.000000
0
LINE
8
0
10
683.000000
20
378.000000
11
543.000000
21
378.000000
0
LINE
8
0
10
543.000000
20
378.000000
11
543.000000
21
518.000000
0
LINE
8
0
10
589.700000
20
494.700000
11
613.100000
21
494.700000
0
LINE
8
0
10
613.100000
20
494.700000
11
613.100000
21
471.300000
0
LINE
8
0
10
613.100000
20
471.300000
11
589.700000
21
471.300000
0
LINE
8
0
10
589.700000
20
471.300000
11
589.700000
21
494.700000
0
LINE
8
0
10
613.000000
20
494.700000
11
636.400000
21
494.700000
0
LINE
8
0
10
636.400000
20
494.700000
11
636.400000
21
471.300000
0
LINE
8
0
10
636.400000
20
471.300000
11
613.000000
21
471.300000
0
LINE
8
0
10
613.000000
20
471.300000
11
613.000000
21
494.700000
0
LINE
8
0
10
589.700000
20
471.300000
11
613.100000
21
471.300000
0
LINE
8
0
10
613.100000
20
471.300000
11
613.100000
21
447.900000
0
LINE
8
0
10
613.100000
20
447.900000
11
589.700000
21
447.900000
0
LINE
8
0
10
589.700000
20
447.900000
11
589.700000
21
471.300000
0
LINE
8
0
10
613.000000
20
471.300000
11
636.400000
21
471.300000
0
LINE
8
0
10
636.400000
20
471.300000
11
636.400000
21
447.900000
0
LINE
8
0
10
636.400000
20
447.900000
11
613.000000
21
447.900000
0
LINE
8
0
10
613.000000
20
447.900000
11
613.000000
21
471.300000
0
LINE
8
0
10
340.000000
20
235.000000
11
560.000000
21
235.000000
0
LINE
8
0
10
560.000000
20
235.000000
11
560.000000
21
15.000000
0
LINE
8
0
10
560.000000
20
15.000000
11
340.000000
21
15.000000
0
LINE
8
0
10
340.000000
20
15.000000
11
340.000000
21
235.000000
0
LINE
8
0
10
413.300000
20
198.300000
11
450.000000
21
198.300000
0
LINE
8
0
10
450.000000
20
198.300000
11
450.000000
21
161.600000
0
LINE
8
0
10
450.000000
20
161.600000
11
413.300000
21
161.600000
0
LINE
8
0
10
413.300000
20
161.600000
11
413.300000
21
198.300000
0
LINE
8
0
10
450.000000
20
198.300000
11
486.700000
21
198.300000
0
LINE
8
0
10
486.700000
20
198.300000
11
486.700000
21
161.600000
0
LINE
8
0
10
486.700000
20
161.600000
11
450.000000
21
161.600000
0
LINE
8
0
10
450.000000
20
161.600000
11
450.000000
21
198.300000
0
LINE
8
0
10
376.700000
20
161.700000
11
413.400000
21
161.700000
0
LINE
8
0
10
413.400000
20
161.700000
11
413.400000
21
125.000000
0
LINE
8
0
10
413.400000
20
125.000000
11
376.700000
21
125.000000
0
LINE
8
0
10
376.700000
20
125.000000
11
376.700000
21
161.700000
0
LINE
8
0
10
413.300000
20
161.700000
11
450.000000
21
161.700000
0
LINE
8
0
10
450.000000
20
161.700000
11
450.000000
21
125.000000
0
LINE
8
0
10
450.000000
20
125.000000
11
413.300000
21
125.000000
0
LINE
8
0
10
413.300000
20
125.000000
11
413.300000
21
161.700000
0
LINE
8
0
10
413.300000
20
125.000000
11
450.000000
21
125.000000
0
LINE
8
0
10
450.000000
20
125.000000
11
450.000000
21
88.300000
0
LINE
8
0
10
450.000000
20
88.300000
11
413.300000
21
88.300000
0
LINE
8
0
10
413.300000
20
88.300000
11
413.300000
21
125.000000
0
LINE
8
0
10
486.700000
20
125.000000
11
523.400000
21
125.000000
0
LINE
8
0
10
523.400000
20
125.000000
11
523.400000
21
88.300000
0
LINE
8
0
10
523.400000
20
88.300000
11
486.700000
21
88.300000
0
LINE
8
0
10
486.700000
20
88.300000
11
486.700000
21
125.000000
0
LINE
8
0
10
376.700000
20
88.300000
11
413.400000
21
88.300000
0
LINE
8
0
10
413.400000
20
88.300000
11
413.400000
21
51.600000
0
LINE
8
0
10
413.400000
20
51.600000
11
376.700000
21
51.600000
0
LINE
8
0
10
376.700000
20
51.600000
11
376.700000
21
88.300000
0
LINE
8
0
10
413.300000
20
88.300000
11
450.000000
21
88.300000
0
LINE
8
0
10
450.000000
20
88.300000
11
450.000000
21
51.600000
0
LINE
8
0
10
450.000000
20
51.600000
11
413.300000
21
51.600000
0
LINE
8
0
10
413.300000
20
51.600000
11
413.300000
21
88.300000
0
LINE
8
0
10
450.000000
20
88.300000
11
486.700000
21
88.300000
0
LINE
8
0
10
486.700000
20
88.300000
11
486.700000
21
51.600000
0
LINE
8
0
10
486.700000
20
51.600000
11
450.000000
21
51.600000
0
LINE
8
0
10
450.000000
20
51.600000
11
450.000000
21
88.300000
0
LINE
8
0
10
340.000000
20
885.000000
11
560.000000
21
885.000000
0
LINE
8
0
10
560.000000
20
885.000000
11
560.000000
21
665.000000
0
LINE
8
0
10
560.000000
20
665.000000
11
340.000000
21
665.000000
0
LINE
8
0
10
340.000000
20
665.000000
11
340.000000
21
885.000000
0
LINE
8
0
10
413.300000
20
848.300000
11
450.000000
21
848.300000
0
LINE
8
0
10
450.000000
20
848.300000
11
450.000000
21
811.600000
0
LINE
8
0
10
450.000000
20
811.600000
11
413.300000
21
811.600000
0
LINE
8
0
10
413.300000
20
811.600000
11
413.300000
21
848.300000
0
LINE
8
0
10
450.000000
20
848.300000
11
486.700000
21
848.300000
0
LINE
8
0
10
486.700000
20
848.300000
11
486.700000
21
811.600000
0
LINE
8
0
10
486.700000
20
811.600000
11
450.000000
21
811.600000
0
LINE
8
0
10
450.000000
20
811.600000
11
450.000000
21
848.300000
0
LINE
8
0
10
486.700000
20
848.300000
11
523.400000
21
848.300000
0
LINE
8
0
10
523.400000
20
848.300000
11
523.400000
21
811.600000
0
LINE
8
0
10
523.400000
20
811.600000
11
486.700000
21
811.600000
0
LINE
8
0
10
486.700000
20
811.600000
11
486.700000
21
848.300000
0
LINE
8
0
10
413.300000
20
811.700000
11
450.000000
21
811.700000
0
LINE
8
0
10
450.000000
20
811.700000
11
450.000000
21
775.000000
0
LINE
8
0
10
450.000000
20
775.000000
11
413.300000
21
775.000000
0
LINE
8
0
10
413.300000
20
775.000000
11
413.300000
21
811.700000
0
LINE
8
0
10
450.000000
20
811.700000
11
486.700000
21
811.700000
0
LINE
8
0
10
486.700000
20
811.700000
11
486.700000
21
775.000000
0
LINE
8
0
10
486.700000
20
775.000000
11
450.000000
21
775.000000
0
LINE
8
0
10
450.000000
20
775.000000
11
450.000000
21
811.700000
0
LINE
8
0
10
376.700000
20
775.000000
11
413.400000
21
775.000000
0
LINE
8
0
10
413.400000
20
775.000000
11
413.400000
21
738.300000
0
LINE
8
0
10
413.400000
20
738.300000
11
376.700000
21
738.300000
0
LINE
8
0
10
376.700000
20
738.300000
11
376.700000
21
775.000000
0
LINE
8
0
10
450.000000
20
775.000000
11
486.700000
21
775.000000
0
LINE
8
0
10
486.700000
20
775.000000
11
486.700000
21
738.300000
0
LINE
8
0
10
486.700000
20
738.300000
11
450.000000
21
738.300000
0
LINE
8
0
10
450.000000
20
738.300000
11
450.000000
21
775.000000
0
LINE
8
0
10
376.700000
20
738.300000
11
413.400000
21
738.300000
0
LINE
8
0
10
413.400000
20
738.300000
11
413.400000
21
701.600000
0
LINE
8
0
10
413.400000
20
701.600000
11
376.700000
21
701.600000
0
LINE
8
0
10
376.700000
20
701.600000
11
376.700000
21
738.300000
0
LINE
8
0
10
413.300000
20
738.300000
11
450.000000
21
738.300000
0
LINE
8
0
10
450.000000
20
738.300000
11
450.000000
21
701.600000
0
LINE
8
0
10
450.000000
20
701.600000
11
413.300000
21
701.600000
0
LINE
8
0
10
413.300000
20
701.600000
11
413.300000
21
738.300000
0
LINE
8
0
10
450.000000
20
738.300000
11
486.700000
21
738.300000
0
LINE
8
0
10
486.700000
20
738.300000
11
486.700000
21
701.600000
0
LINE
8
0
10
486.700000
20
701.600000
11
450.000000
21
701.600000
0
LINE
8
0
10
450.000000
20
701.600000
11
450.000000
21
738.300000
0
LINE
8
0
10
486.700000
20
738.300000
11
523.400000
21
738.300000
0
LINE
8
0
10
523.400000
20
738.300000
11
523.400000
21
701.600000
0
LINE
8
0
10
523.400000
20
701.600000
11
486.700000
21
701.600000
0
LINE
8
0
10
486.700000
20
701.600000
11
486.700000
21
738.300000
0
LINE
8
0
10
695.000000
20
556.771034
11
895.000000
21
556.771034
0
LINE
8
0
10
895.000000
20
556.771034
11
895.000000
21
356.771034
0
LINE
8
0
10
895.000000
20
356.771034
11
695.000000
21
356.771034
0
LINE
8
0
10
695.000000
20
356.771034
11
695.000000
21
556.771034
0
LINE
8
0
10
728.300000
20
523.471034
11
761.700000
21
523.471034
0
LINE
8
0
10
761.700000
20
523.471034
11
761.700000
21
490.071034
0
LINE
8
0
10
761.700000
20
490.071034
11
728.300000
21
490.071034
0
LINE
8
0
10
728.300000
20
490.071034
11
728.300000
21
523.471034
0
LINE
8
0
10
761.700000
20
490.071034
11
795.100000
21
490.071034
0
LINE
8
0
10
795.100000
20
490.071034
11
795.100000
21
456.671034
0
LINE
8
0
10
795.100000
20
456.671034
11
761.700000
21
456.671034
0
LINE
8
0
10
761.700000
20
456.671034
11
761.700000
21
490.071034
0
LINE
8
0
10
795.000000
20
490.071034
11
828.400000
21
490.071034
0
LINE
8
0
10
828.400000
20
490.071034
11
828.400000
21
456.671034
0
LINE
8
0
10
828.400000
20
456.671034
11
795.000000
21
456.671034
0
LINE
8
0
10
795.000000
20
456.671034
11
795.000000
21
490.071034
0
LINE
8
0
10
728.300000
20
456.771034
11
761.700000
21
456.771034
0
LINE
8
0
10
761.700000
20
456.771034
11
761.700000
21
423.371034
0
LINE
8
0
10
761.700000
20
423.371034
11
728.300000
21
423.371034
0
LINE
8
0
10
728.300000
20
423.371034
11
728.300000
21
456.771034
0
LINE
8
0
10
728.300000
20
423.471034
11
761.700000
21
423.471034
0
LINE
8
0
10
761.700000
20
423.471034
11
761.700000
21
390.071034
0
LINE
8
0
10
761.700000
20
390.071034
11
728.300000
21
390.071034
0
LINE
8
0
10
728.300000
20
390.071034
11
728.300000
21
423.471034
0
LINE
8
0
10
795.000000
20
423.471034
11
828.400000
21
423.471034
0
LINE
8
0
10
828.400000
20
423.471034
11
828.400000
21
390.071034
0
LINE
8
0
10
828.400000
20
390.071034
11
795.000000
21
390.071034
0
LINE
8
0
10
795.000000
20
390.071034
11
795.000000
21
423.471034
0
LINE
8
0
10
828.300000
20
423.471034
11
861.700000
21
423.471034
0
LINE
8
0
10
861.700000
20
423.471034
11
861.700000
21
390.071034
0
LINE
8
0
10
861.700000
20
390.071034
11
828.300000
21
390.071034
0
LINE
8
0
10
828.300000
20
390.071034
11
828.300000
21
423.471034
0
LINE
8
0
10
5.000000
20
546.679030
11
205.000000
21
546.679030
0
LINE
8
0
10
205.000000
20
546.679030
11
205.000000
21
346.679030
0
LINE
8
0
10
205.000000
20
346.679030
11
5.000000
21
346.679030
0
LINE
8
0
10
5.000000
20
346.679030
11
5.000000
21
546.679030
0
LINE
8
0
10
38.300000
20
513.379030
11
71.700000
21
513.379030
0
LINE
8
0
10
71.700000
20
513.379030
11
71.700000
21
479.979030
0
LINE
8
0
10
71.700000
20
479.979030
11
38.300000
21
479.979030
0
LINE
8
0
10
38.300000
20
479.979030
11
38.300000
21
513.379030
0
LINE
8
0
10
105.000000
20
513.379030
11
138.400000
21
513.379030
0
LINE
8
0
10
138.400000
20
513.379030
11
138.400000
21
479.979030
0
LINE
8
0
10
138.400000
20
479.979030
11
105.000000
21
479.979030
0
LINE
8
0
10
105.000000
20
479.979030
11
105.000000
21
513.379030
0
LINE
8
0
10
138.300000
20
513.379030
11
171.700000
21
513.379030
0
LINE
8
0
10
171.700000
20
513.379030
11
171.700000
21
479.979030
0
LINE
8
0
10
171.700000
20
479.979030
11
138.300000
21
479.979030
0
LINE
8
0
10
138.300000
20
479.979030
11
138.300000
21
513.379030
0
LINE
8
0
10
105.000000
20
446.679030
11
138.400000
21
446.679030
0
LINE
8
0
10
138.400000
20
446.679030
11
138.400000
21
413.279030
0
LINE
8
0
10
138.400000
20
413.279030
11
105.000000
21
413.279030
0
LINE
8
0
10
105.000000
20
413.279030
11
105.000000
21
446.679030
0
LINE
8
0
10
38.300000
20
413.379030
11
71.700000
21
413.379030
0
LINE
8
0
10
71.700000
20
413.379030
11
71.700000
21
379.979030
0
LINE
8
0
10
71.700000
20
379.979030
11
38.300000
21
379.979030
0
LINE
8
0
10
38.300000
20
379.979030
11
38.300000
21
413.379030
0
LINE
8
0
10
105.000000
20
413.379030
11
138.400000
21
413.379030
0
LINE
8
0
10
138.400000
20
413.379030
11
138.400000
21
379.979030
0
LINE
8
0
10
138.400000
20
379.979030
11
105.000000
21
379.979030
0
LINE
8
0
10
105.000000
20
379.979030
11
105.000000
21
413.379030
0
LINE
8
0
10
138.300000
20
413.379030
11
171.700000
21
413.379030
0
LINE
8
0
10
171.700000
20
413.379030
11
171.700000
21
379.979030
0
LINE
8
0
10
171.700000
20
379.979030
11
138.300000
21
379.979030
0
LINE
8
0
10
138.300000
20
379.979030
11
138.300000
21
413.379030
0
LINE
8
0
10
252.865224
20
625.730363
11
322.665224
21
625.730363
0
LINE
8
0
10
322.665224
20
625.730363
11
322.665224
21
555.930363
0
LINE
8
0
10
322.665224
20
555.930363
11
252.865224
21
555.930363
0
LINE
8
0
10
252.865224
20
555.930363
11
252.865224
21
625.730363
0
LINE
8
0
10
264.465224
20
614.130363
11
276.165224
21
614.130363
0
LINE
8
0
10
276.165224
20
614.130363
11
276.165224
21
602.430363
0
LINE
8
0
10
276.165224
20
602.430363
11
264.465224
21
602.430363
0
LINE
8
0
10
264.465224
20
602.430363
11
264.465224
21
614.130363
0
LINE
8
0
10
276.165224
20
614.130363
11
287.865224
21
614.130363
0
LINE
8
0
10
287.865224
20
614.130363
11
287.865224
21
602.430363
0
LINE
8
0
10
287.865224
20
602.430363
11
276.165224
21
602.430363
0
LINE
8
0
10
276.165224
20
602.430363
11
276.165224
21
614.130363
0
LINE
8
0
10
264.465224
20
602.430363
11
276.165224
21
602.430363
0
LINE
8
0
10
276.165224
20
602.430363
11
276.165224
21
590.730363
0
LINE
8
0
10
276.165224
20
590.730363
11
264.465224
21
590.730363
0
LINE
8
0
10
264.465224
20
590.730363
11
264.465224
21
602.430363
0
LINE
8
0
10
276.165224
20
602.430363
11
287.865224
21
602.430363
0
LINE
8
0
10
287.865224
20
602.430363
11
287.865224
21
590.730363
0
LINE
8
0
10
287.865224
20
590.730363
11
276.165224
21
590.730363
0
LINE
8
0
10
276.165224
20
590.730363
11
276.165224
21
602.430363
0
LINE
8
0
10
264.465224
20
590.830363
11
276.165224
21
590.830363
0
LINE
8
0
10
276.165224
20
590.830363
11
276.165224
21
579.130363
0
LINE
8
0
10
276.165224
20
579.130363
11
264.465224
21
579.130363
0
LINE
8
0
10
264.465224
20
579.130363
11
264.465224
21
590.830363
0
LINE
8
0
10
276.165224
20
590.830363
11
287.865224
21
590.830363
0
LINE
8
0
10
287.865224
20
590.830363
11
287.865224
21
579.130363
0
LINE
8
0
10
287.865224
20
579.130363
11
276.165224
21
579.130363
0
LINE
8
0
10
276.165224
20
579.130363
11
276.165224
21
590.830363
0
LINE
8
0
10
299.365224
20
590.830363
11
311.065224
21
590.830363
0
LINE
8
0
10
311.065224
20
590.830363
11
311.065224
21
579.130363
0
LINE
8
0
10
311.065224
20
579.130363
11
299.365224
21
579.130363
0
LINE
8
0
10
299.365224
20
579.130363
11
299.365224
21
590.830363
0
LINE
8
0
10
276.165224
20
579.230363
11
287.865224
21
579.230363
0
LINE
8
0
10
287.865224
20
579.230363
11
287.865224
21
567.530363
0
LINE
8
0
10
287.865224
20
567.530363
11
276.165224
21
567.530363
0
LINE
8
0
10
276.165224
20
567.530363
11
276.165224
21
579.230363
0
LINE
8
0
10
299.365224
20
579.230363
11
311.065224
21
579.230363
0
LINE
8
0
10
311.065224
20
579.230363
11
311.065224
21
567.530363
0
LINE
8
0
10
311.065224
20
567.530363
11
299.365224
21
567.530363
0
LINE
8
0
10
299.365224
20
567.530363
11
299.365224
21
579.230363
0
LINE
8
0
10
588.465130
20
626.968635
11
658.465130
21
626.968635
0
LINE
8
0
10
658.465130
20
626.968635
11
658.465130
21
556.968635
0
LINE
8
0
10
658.465130
20
556.968635
11
588.465130
21
556.968635
0
LINE
8
0
10
588.465130
20
556.968635
11
588.465130
21
626.968635
0
LINE
8
0
10
600.165130
20
615.268635
11
611.865130
21
615.268635
0
LINE
8
0
10
611.865130
20
615.268635
11
611.865130
21
603.568635
0
LINE
8
0
10
611.865130
20
603.568635
11
600.165130
21
603.568635
0
LINE
8
0
10
600.165130
20
603.568635
11
600.165130
21
615.268635
0
LINE
8
0
10
611.765130
20
615.268635
11
623.465130
21
615.268635
0
LINE
8
0
10
623.465130
20
615.268635
11
623.465130
21
603.568635
0
LINE
8
0
10
623.465130
20
603.568635
11
611.765130
21
603.568635
0
LINE
8
0
10
611.765130
20
603.568635
11
611.765130
21
615.268635
0
LINE
8
0
10
635.165130
20
615.268635
11
646.865130
21
615.268635
0
LINE
8
0
10
646.865130
20
615.268635
11
646.865130
21
603.568635
0
LINE
8
0
10
646.865130
20
603.568635
11
635.165130
21
603.568635
0
LINE
8
0
10
635.165130
20
603.568635
11
635.165130
21
615.268635
0
LINE
8
0
10
600.165130
20
603.668635
11
611.865130
21
603.668635
0
LINE
8
0
10
611.865130
20
603.668635
11
611.865130
21
591.968635
0
LINE
8
0
10
611.865130
20
591.968635
11
600.165130
21
591.968635
0
LINE
8
0
10
600.165130
20
591.968635
11
600.165130
21
603.668635
0
LINE
8
0
10
611.765130
20
603.668635
11
623.465130
21
603.668635
0
LINE
8
0
10
623.465130
20
603.668635
11
623.465130
21
591.968635
0
LINE
8
0
10
623.465130
20
591.968635
11
611.765130
21
591.968635
0
LINE
8
0
10
611.765130
20
591.968635
11
611.765130
21
603.668635
0
LINE
8
0
10
635.165130
20
603.668635
11
646.865130
21
603.668635
0
LINE
8
0
10
646.865130
20
603.668635
11
646.865130
21
591.968635
0
LINE
8
0
10
646.865130
20
591.968635
11
635.165130
21
591.968635
0
LINE
8
0
10
635.165130
20
591.968635
11
635.165130
21
603.668635
0
LINE
8
0
10
600.165130
20
591.968635
11
611.865130
21
591.968635
0
LINE
8
0
10
611.865130
20
591.968635
11
611.865130
21
580.268635
0
LINE
8
0
10
611.865130
20
580.268635
11
600.165130
21
580.268635
0
LINE
8
0
10
600.165130
20
580.268635
11
600.165130
21
591.968635
0
LINE
8
0
10
623.465130
20
580.268635
11
635.165130
21
580.268635
0
LINE
8
0
10
635.165130
20
580.268635
11
635.165130
21
568.568635
0
LINE
8
0
10
635.165130
20
568.568635
11
623.465130
21
568.568635
0
LINE
8
0
10
623.465130
20
568.568635
11
623.465130
21
580.268635
0
LINE
8
0
10
247.232479
20
347.472731
11
317.032479
21
347.472731
0
LINE
8
0
10
317.032479
20
347.472731
11
317.032479
21
277.672731
0
LINE
8
0
10
317.032479
20
277.672731
11
247.232479
21
277.672731
0
LINE
8
0
10
247.232479
20
277.672731
11
247.232479
21
347.472731
0
LINE
8
0
10
258.832479
20
335.872731
11
270.532479
21
335.872731
0
LINE
8
0
10
270.532479
20
335.872731
11
270.532479
21
324.172731
0
LINE
8
0
10
270.532479
20
324.172731
11
258.832479
21
324.172731
0
LINE
8
0
10
258.832479
20
324.172731
11
258.832479
21
335.872731
0
LINE
8
0
10
270.532479
20
335.872731
11
282.232479
21
335.872731
0
LINE
8
0
10
282.232479
20
335.872731
11
282.232479
21
324.172731
0
LINE
8
0
10
282.232479
20
324.172731
11
270.532479
21
324.172731
0
LINE
8
0
10
270.532479
20
324.172731
11
270.532479
21
335.872731
0
LINE
8
0
10
282.132479
20
335.872731
11
293.832479
21
335.872731
0
LINE
8
0
10
293.832479
20
335.872731
11
293.832479
21
324.172731
0
LINE
8
0
10
293.832479
20
324.172731
11
282.132479
21
324.172731
0
LINE
8
0
10
282.132479
20
324.172731
11
282.132479
21
335.872731
0
LINE
8
0
10
293.732479
20
335.872731
11
305.432479
21
335.872731
0
LINE
8
0
10
305.432479
20
335.872731
11
305.432479
21
324.172731
0
LINE
8
0
10
305.432479
20
324.172731
11
293.732479
21
324.172731
0
LINE
8
0
10
293.732479
20
324.172731
11
293.732479
21
335.872731
0
LINE
8
0
10
258.832479
20
324.172731
11
270.532479
21
324.172731
0
LINE
8
0
10
270.532479
20
324.172731
11
270.532479
21
312.472731
0
LINE
8
0
10
270.532479
20
312.472731
11
258.832479
21
312.472731
0
LINE
8
0
10
258.832479
20
312.472731
11
258.832479
21
324.172731
0
LINE
8
0
10
270.532479
20
324.172731
11
282.232479
21
324.172731
0
LINE
8
0
10
282.232479
20
324.172731
11
282.232479
21
312.472731
0
LINE
8
0
10
282.232479
20
312.472731
11
270.532479
21
312.472731
0
LINE
8
0
10
270.532479
20
312.472731
11
270.532479
21
324.172731
0
LINE
8
0
10
282.132479
20
324.172731
11
293.832479
21
324.172731
0
LINE
8
0
10
293.832479
20
324.172731
11
293.832479
21
312.472731
0
LINE
8
0
10
293.832479
20
312.472731
11
282.132479
21
312.472731
0
LINE
8
0
10
282.132479
20
312.472731
11
282.132479
21
324.172731
0
LINE
8
0
10
270.532479
20
312.572731
11
282.232479
21
312.572731
0
LINE
8
0
10
282.232479
20
312.572731
11
282.232479
21
300.872731
0
LINE
8
0
10
282.232479
20
300.872731
11
270.532479
21
300.872731
0
LINE
8
0
10
270.532479
20
300.872731
11
270.532479
21
312.572731
0
LINE
8
0
10
270.532479
20
300.972731
11
282.232479
21
300.972731
0
LINE
8
0
10
282.232479
20
300.972731
11
282.232479
21
289.272731
0
LINE
8
0
10
282.232479
20
289.272731
11
270.532479
21
289.272731
0
LINE
8
0
10
270.532479
20
289.272731
11
270.532479
21
300.972731
0
LINE
8
0
10
282.132479
20
300.972731
11
293.832479
21
300.972731
0
LINE
8
0
10
293.832479
20
300.972731
11
293.832479
21
289.272731
0
LINE
8
0
10
293.832479
20
289.272731
11
282.132479
21
289.272731
0
LINE
8
0
10
282.132479
20
289.272731
11
282.132479
21
300.972731
0
LINE
8
0
10
293.732479
20
300.972731
11
305.432479
21
300.972731
0
LINE
8
0
10
305.432479
20
300.972731
11
305.432479
21
289.272731
0
LINE
8
0
10
305.432479
20
289.272731
11
293.732479
21
289.272731
0
LINE
8
0
10
293.732479
20
289.272731
11
293.732479
21
300.972731
0
LINE
8
0
10
579.564428
20
354.396359
11
649.364428
21
354.396359
0
LINE
8
0
10
649.364428
20
354.396359
11
649.364428
21
284.596359
0
LINE
8
0
10
649.364428
20
284.596359
11
579.564428
21
284.596359
0
LINE
8
0
10
579.564428
20
284.596359
11
579.564428
21
354.396359
0
LINE
8
0
10
591.164428
20
342.796359
11
602.864428
21
342.796359
0
LINE
8
0
10
602.864428
20
342.796359
11
602.864428
21
331.096359
0
LINE
8
0
10
602.864428
20
331.096359
11
591.164428
21
331.096359
0
LINE
8
0
10
591.164428
20
331.096359
11
591.164428
21
342.796359
0
LINE
8
0
10
626.064428
20
342.796359
11
637.764428
21
342.796359
0
LINE
8
0
10
637.764428
20
342.796359
11
637.764428
21
331.096359
0
LINE
8
0
10
637.764428
20
331.096359
11
626.064428
21
331.096359
0
LINE
8
0
10
626.064428
20
331.096359
11
626.064428
21
342.796359
0
LINE
8
0
10
602.864428
20
331.096359
11
614.564428
21
331.096359
0
LINE
8
0
10
614.564428
20
331.096359
11
614.564428
21
319.396359
0
LINE
8
0
10
614.564428
20
319.396359
11
602.864428
21
319.396359
0
LINE
8
0
10
602.864428
20
319.396359
11
602.864428
21
331.096359
0
LINE
8
0
10
602.864428
20
319.496359
11
614.564428
21
319.496359
0
LINE
8
0
10
614.564428
20
319.496359
11
614.564428
21
307.796359
0
LINE
8
0
10
614.564428
20
307.796359
11
602.864428
21
307.796359
0
LINE
8
0
10
602.864428
20
307.796359
11
602.864428
21
319.496359
0
LINE
8
0
10
614.464428
20
319.496359
11
626.164428
21
319.496359
0
LINE
8
0
10
626.164428
20
319.496359
11
626.164428
21
307.796359
0
LINE
8
0
10
626.164428
20
307.796359
11
614.464428
21
307.796359
0
LINE
8
0
10
614.464428
20
307.796359
11
614.464428
21
319.496359
0
LINE
8
0
10
626.064428
20
319.496359
11
637.764428
21
319.496359
0
LINE
8
0
10
637.764428
20
319.496359
11
637.764428
21
307.796359
0
LINE
8
0
10
637.764428
20
307.796359
11
626.064428
21
307.796359
0
LINE
8
0
10
626.064428
20
307.796359
11
626.064428
21
319.496359
0
LINE
8
0
10
626.064428
20
307.896359
11
637.764428
21
307.896359
0
LINE
8
0
10
637.764428
20
307.896359
11
637.764428
21
296.196359
0
LINE
8
0
10
637.764428
20
296.196359
11
626.064428
21
296.196359
0
LINE
8
0
10
626.064428
20
296.196359
11
626.064428
21
307.896359
0
ENDSEC
0
EOF