<?xml version="1.0" encoding="utf-8" ?>
<svg baseProfile="full" height="900mm" shape-rendering="crispEdges" version="1.1" viewBox="-0.45 -0.45 0.9 0.9" width="900mm" xmlns="http://www.w3.org/2000/svg" xmlns:ev="http://www.w3.org/2001/xml-events" xmlns:xlink="http://www.w3.org/1999/xlink"><defs /><rect fill="black" height="0.9" width="0.9" x="-0.45" y="-0.45" /><g transform="translate(0.33 0.33),rotate(0)"><rect fill="white" height="0.22" width="0.22" x="-0.11" y="-0.11" /><rect fill="black" height="0.0367" width="0.0367" x="-0.0733" y="-0.0733" /><rect fill="black" height="0.0367" width="0.0367" x="-0.0367" y="-0.0733" /><rect fill="black" height="0.0367" width="0.0367" x="-0.0733" y="-0.0367" /><rect fill="black" height="0.0367" width="0.0367" x="-0.0367" y="-0.0367" /><rect fill="black" height="0.0367" width="0.0367" x="0.0" y="-0.0367" /><rect fill="black" height="0.0367" width="0.0367" x="0.0367" y="-0.0367" /><rect fill="black" height="0.0367" width="0.0367" x="-0.0367" y="0.0" /><rect fill="black" height="0.0367" width="0.0367" x="0.0367" y="0.0" /><rect fill="black" height="0.0367" width="0.0367" x="-0.0367" y="0.0367" /><rect fill="black" height="0.0367" width="0.0367" x="0.0" y="0.0367" /></g><g transform="translate(-0.33 -0.33),rotate(0)"><rect fill="white" height="0.22" width="0.22" x="-0.11" y="-0.11" /><rect fill="black" height="0.0367" width="0.0367" x="-0.0733" y="-0.0733" /><rect fill="black" height="0.0367" width="0.0367" x="-0.0367" y="-0.0733" /><rect fill="black" height="0.0367" width="0.0367" x="0.0" y="-0.0733" /><rect fill="black" height="0.0367" width="0.0367" x="0.0367" y="-0.0733" /><rect fill="black" height="0.0367" width="0.0367" x="-0.0733" y="-0.0367" /><rect fill="black" height="0.0367" width="0.0367" x="0.0367" y="-0.0367" /><rect fill="black" height="0.0367" width="0.0367" x="-0.0733" y="0.0" /><rect fill="black" height="0.0367" width="0.0367" x="0.0367" y="0.0" /><rect fill="black" height="0.0367" width="0.0367" x="0.0367" y="0.0367" /></g><g transform="translate(0.33 -0.33),rotate(0)"><rect fill="white" height="0.22" width="0.22" x="-0.11" y="-0.11" /><rect fill="black" height="0.0367" width="0.0367" x="0.0367" y="-0.0733" /><rect fill="black" height="0.0367" width="0.0367" x="0.0367" y="-0.0367" /><rect fill="black" height="0.0367" width="0.0367" x="-0.0733" y="0.0" /><rect fill="black" height="0.0367" width="0.0367" x="0.0" y="0.0" /><rect fill="black" height="0.0367" width="0.0367" x="-0.0367" y="0.0367" /><rect fill="black" height="0.0367" width="0.0367" x="0.0" y="0.0367" /><rect fill="black" height="0.0367" width="0.0367" x="0.0367" y="0.0367" /></g><g transform="translate(-0.33 0.33),rotate(0)"><rect fill="white" height="0.22" width="0.22" x="-0.11" y="-0.11" /><rect fill="black" height="0.0367" width="0.0367" x="-0.0733" y="-0.0367" /><rect fill="black" height="0.0367" width="0.0367" x="-0.0367" y="-0.0367" /><rect fill="black" height="0.0367" width="0.0367" x="0.0" y="-0.0367" /><rect fill="black" height="0.0367" width="0.0367" x="-0.0733" y="0.0" /><rect fill="black" height="0.0367" width="0.0367" x="0.0" y="0.0" /><rect fill="black" height="0.0367" width="0.0367" x="0.0367" y="0.0" /><rect fill="black" height="0.0367" width="0.0367" x="-0.0367" y="0.0367" /><rect fill="black" height="0.0367" width="0.0367" x="0.0" y="0.0367" /><rect fill="black" height="0.0367" width="0.0367" x="0.0367" y="0.0367" /></g><g transform="translate(0 0),rotate(0)"><rect fill="white" height="0.0741" width="0.0741" x="-0.0371" y="-0.0371" /><rect fill="black" height="0.0124" width="0.0124" x="0.0" y="-0.0247" /><rect fill="black" height="0.0124" width="0.0124" x="-0.0247" y="-0.0124" /><rect fill="black" height="0.0124" width="0.0124" x="0.0" y="-0.0124" /><rect fill="black" height="0.0124" width="0.0124" x="-0.0247" y="0.0124" /><rect fill="black" height="0.0124" width="0.0124" x="-0.0124" y="0.0124" /><rect fill="black" height="0.0124" width="0.0124" x="0.0" y="0.0124" /><rect fill="black" height="0.0124" width="0.0124" x="0.0124" y="0.0124" /></g><g transform="translate(-0.0022883369932652532 -0.12808627767218292),rotate(0)"><rect fill="white" height="0.1393" width="0.1393" x="-0.0697" y="-0.0697" /><rect fill="black" height="0.0233" width="0.0233" x="0.0" y="-0.0464" /><rect fill="black" height="0.0233" width="0.0233" x="-0.0232" y="-0.0232" /><rect fill="black" height="0.0233" width="0.0233" x="-0.0464" y="0.0" /><rect fill="black" height="0.0233" width="0.0233" x="0.0" y="0.0" /><rect fill="black" height="0.0233" width="0.0233" x="0.0232" y="0.0" /><rect fill="black" height="0.0233" width="0.0233" x="0.0232" y="0.0232" /></g><g transform="translate(-0.002 0.128),rotate(0)"><rect fill="white" height="0.14" width="0.14" x="-0.07" y="-0.07" /><rect fill="black" height="0.0234" width="0.0234" x="0.0" y="-0.0467" /><rect fill="black" height="0.0234" width="0.0234" x="-0.0233" y="-0.0233" /><rect fill="black" height="0.0234" width="0.0234" x="0.0" y="-0.0233" /><rect fill="black" height="0.0234" width="0.0234" x="0.0" y="0.0" /><rect fill="black" height="0.0234" width="0.0234" x="0.0233" y="0.0" /><rect fill="black" height="0.0234" width="0.0234" x="-0.0467" y="0.0233" /><rect fill="black" height="0.0234" width="0.0234" x="-0.0233" y="0.0233" /><rect fill="black" height="0.0234" width="0.0234" x="0.0" y="0.0233" /></g><g transform="translate(-0.1633143844159991 0.001959732990564671),rotate(0)"><rect fill="white" height="0.1392" width="0.1392" x="-0.0696" y="-0.0696" /><rect fill="black" height="0.0232" width="0.0232" x="-0.0232" y="-0.0464" /><rect fill="black" height="0.0232" width="0.0232" x="-0.0232" y="-0.0232" /><rect fill="black" height="0.0232" width="0.0232" x="0.0" y="-0.0232" /><rect fill="black" height="0.0232" width="0.0232" x="-0.0232" y="0.0" /><rect fill="black" height="0.0232" width="0.0232" x="0.0" y="0.0" /><rect fill="black" height="0.0232" width="0.0232" x="-0.0232" y="0.0232" /><rect fill="black" height="0.0232" width="0.0232" x="0.0232" y="0.0232" /></g><g transform="translate(0.163 0.002),rotate(0)"><rect fill="white" height="0.14" width="0.14" x="-0.07" y="-0.07" /><rect fill="black" height="0.0234" width="0.0234" x="-0.0233" y="-0.0467" /><rect fill="black" height="0.0234" width="0.0234" x="0.0" y="-0.0467" /><rect fill="black" height="0.0234" width="0.0234" x="-0.0233" y="-0.0233" /><rect fill="black" height="0.0234" width="0.0234" x="0.0" y="-0.0233" /></g><g transform="translate(0 0.325),rotate(0)"><rect fill="white" height="0.22" width="0.22" x="-0.11" y="-0.11" /><rect fill="black" height="0.0367" width="0.0367" x="-0.0367" y="-0.0733" /><rect fill="black" height="0.0367" width="0.0367" x="0.0" y="-0.0733" /><rect fill="black" height="0.0367" width="0.0367" x="-0.0733" y="-0.0367" /><rect fill="black" height="0.0367" width="0.0367" x="-0.0367" y="-0.0367" /><rect fill="black" height="0.0367" width="0.0367" x="-0.0367" y="0.0" /><rect fill="black" height="0.0367" width="0.0367" x="0.0367" y="0.0" /><rect fill="black" height="0.0367" width="0.0367" x="-0.0733" y="0.0367" /><rect fill="black" height="0.0367" width="0.0367" x="-0.0367" y="0.0367" /><rect fill="black" height="0.0367" width="0.0367" x="0.0" y="0.0367" /></g><g transform="translate(0 -0.325),rotate(0)"><rect fill="white" height="0.22" width="0.22" x="-0.11" y="-0.11" /><rect fill="black" height="0.0367" width="0.0367" x="-0.0367" y="-0.0733" /><rect fill="black" height="0.0367" width="0.0367" x="0.0" y="-0.0733" /><rect fill="black" height="0.0367" width="0.0367" x="0.0367" y="-0.0733" /><rect fill="black" height="0.0367" width="0.0367" x="-0.0367" y="-0.0367" /><rect fill="black" height="0.0367" width="0.0367" x="0.0" y="-0.0367" /><rect fill="black" height="0.0367" width="0.0367" x="-0.0733" y="0.0" /><rect fill="black" height="0.0367" width="0.0367" x="0.0" y="0.0" /><rect fill="black" height="0.0367" width="0.0367" x="-0.0733" y="0.0367" /><rect fill="black" height="0.0367" width="0.0367" x="-0.0367" y="0.0367" /><rect fill="black" height="0.0367" width="0.0367" x="0.0" y="0.0367" /><rect fill="black" height="0.0367" width="0.0367" x="0.0367" y="0.0367" /></g><g transform="translate(0.34500000000000003 -0.00677103448949227),rotate(0)"><rect fill="white" height="0.2" width="0.2" x="-0.1" y="-0.1" /><rect fill="black" height="0.0334" width="0.0334" x="-0.0667" y="-0.0667" /><rect fill="black" height="0.0334" width="0.0334" x="-0.0333" y="-0.0333" /><rect fill="black" height="0.0334" width="0.0334" x="0.0" y="-0.0333" /><rect fill="black" height="0.0334" width="0.0334" x="-0.0667" y="0.0" /><rect fill="black" height="0.0334" width="0.0334" x="-0.0667" y="0.0333" /><rect fill="black" height="0.0334" width="0.0334" x="0.0" y="0.0333" /><rect fill="black" height="0.0334" width="0.0334" x="0.0333" y="0.0333" /></g><g transform="translate(-0.34500000000000003 0.0033209696462296536),rotate(0)"><rect fill="white" height="0.2" width="0.2" x="-0.1" y="-0.1" /><rect fill="black" height="0.0334" width="0.0334" x="-0.0667" y="-0.0667" /><rect fill="black" height="0.0334" width="0.0334" x="0.0" y="-0.0667" /><rect fill="black" height="0.0334" width="0.0334" x="0.0333" y="-0.0667" /><rect fill="black" height="0.0334" width="0.0334" x="0.0" y="0.0" /><rect fill="black" height="0.0334" width="0.0334" x="-0.0667" y="0.0333" /><rect fill="black" height="0.0334" width="0.0334" x="0.0" y="0.0333" /><rect fill="black" height="0.0334" width="0.0334" x="0.0333" y="0.0333" /></g><g transform="translate(-0.1622347764102129 -0.1408303629978167),rotate(0)"><rect fill="white" height="0.0698" width="0.0698" x="-0.0349" y="-0.0349" /><rect fill="black" height="0.0117" width="0.0117" x="-0.0233" y="-0.0233" /><rect fill="black" height="0.0117" width="0.0117" x="-0.0116" y="-0.0233" /><rect fill="black" height="0.0117" width="0.0117" x="-0.0233" y="-0.0116" /><rect fill="black" height="0.0117" width="0.0117" x="-0.0116" y="-0.0116" /><rect fill="black" height="0.0117" width="0.0117" x="-0.0233" y="0.0" /><rect fill="black" height="0.0117" width="0.0117" x="-0.0116" y="0.0" /><rect fill="black" height="0.0117" width="0.0117" x="0.0116" y="0.0" /><rect fill="black" height="0.0117" width="0.0117" x="-0.0116" y="0.0116" /><rect fill="black" height="0.0117" width="0.0117" x="0.0116" y="0.0116" /></g><g transform="translate(0.17346513030432567 -0.14196863540222798),rotate(0)"><rect fill="white" height="0.07" width="0.07" x="-0.035" y="-0.035" /><rect fill="black" height="0.0117" width="0.0117" x="-0.0233" y="-0.0233" /><rect fill="black" height="0.0117" width="0.0117" x="-0.0117" y="-0.0233" /><rect fill="black" height="0.0117" width="0.0117" x="0.0117" y="-0.0233" /><rect fill="black" height="0.0117" width="0.0117" x="-0.0233" y="-0.0117" /><rect fill="black" height="0.0117" width="0.0117" x="-0.0117" y="-0.0117" /><rect fill="black" height="0.0117" width="0.0117" x="0.0117" y="-0.0117" /><rect fill="black" height="0.0117" width="0.0117" x="-0.0233" y="0.0" /><rect fill="black" height="0.0117" width="0.0117" x="0.0" y="0.0117" /></g><g transform="translate(-0.16786752130552066 0.1374272692099326),rotate(0)"><rect fill="white" height="0.0698" width="0.0698" x="-0.0349" y="-0.0349" /><rect fill="black" height="0.0117" width="0.0117" x="-0.0233" y="-0.0233" /><rect fill="black" height="0.0117" width="0.0117" x="-0.0116" y="-0.0233" /><rect fill="black" height="0.0117" width="0.0117" x="0.0" y="-0.0233" /><rect fill="black" height="0.0117" width="0.0117" x="0.0116" y="-0.0233" /><rect fill="black" height="0.0117" width="0.0117" x="-0.0233" y="-0.0116" /><rect fill="black" height="0.0117" width="0.0117" x="-0.0116" y="-0.0116" /><rect fill="black" height="0.0117" width="0.0117" x="0.0" y="-0.0116" /><rect fill="black" height="0.0117" width="0.0117" x="-0.0116" y="0.0" /><rect fill="black" height="0.0117" width="0.0117" x="-0.0116" y="0.0116" /><rect fill="black" height="0.0117" width="0.0117" x="0.0" y="0.0116" /><rect fill="black" height="0.0117" width="0.0117" x="0.0116" y="0.0116" /></g><g transform="translate(0.16446442751763654 0.13050364110338816),rotate(0)"><rect fill="white" height="0.0698" width="0.0698" x="-0.0349" y="-0.0349" /><rect fill="black" height="0.0117" width="0.0117" x="-0.0233" y="-0.0233" /><rect fill="black" height="0.0117" width="0.0117" x="0.0116" y="-0.0233" /><rect fill="black" height="0.0117" width="0.0117" x="-0.0116" y="-0.0116" /><rect fill="black" height="0.0117" width="0.0117" x="-0.0116" y="0.0" /><rect fill="black" height="0.0117" width="0.0117" x="0.0" y="0.0" /><rect fill="black" height="0.0117" width="0.0117" x="0.0116" y="0.0" /><rect fill="black" height="0.0117" width="0.0117" x="0.0116" y="0.0116" /></g></svg>